#!OML:ASF F:\VICON\USERDATA\INSTALL\rory3\rory3.ASF
:FULLY-SPECIFIED
:DEGREES
53
root 0.5757878855811643 18.13666088167292 17.37640636192519 3.135608711888243 3.954063883229237 -4.81389292482006
lfemur -34.466612718977856 2.5571011797333307 -18.162773171760367
ltibia 65.77510460836984
lfoot -0.7781000418412112 -10.495080147610727
ltoes -7.751743090829785
rfemur -3.271105270593761 5.286129243774126 33.11714668288254
rtibia 44.66941833776929
rfoot 7.4645160922410945 -4.688083008623162
rtoes 1.4343637670846496
lowerback 14.009224821444102 1.0342129490575633 4.800286326358993
upperback -1.322260106290567 2.798389209978737 1.557264226317077
thorax -9.316543953154374 1.0015212047805861 -1.9096261615774177
lowerneck -20.014787781371634 -5.1323177722441935 -1.7965729518782305
upperneck 14.593563568964239 -7.599083508271297 2.5779977911204135
head 8.110463852006253 -3.1526406795743864 0.3572296845707687
lclavicle -1.9521729781560437e-15 1.1013548979497733e-15
lhumerus -62.576151942768455 -5.080753358499946 97.69524670005073
lradius 111.45782505443877
lwrist 46.45851844130637
lhand -17.861366097680314 7.238826044854256
lfingers 7.125020000000001
lthumb 8.65774727601911 37.058975426478376
rclavicle -1.952176533109819e-15 1.101352104982752e-15
rhumerus -40.95246605916734 17.92912335126089 -99.88119073464034
rradius 111.14002559709633
rwrist -14.866996491879526
rhand -23.915988040467365 -111.13626636040183
rfingers 7.125020000000001
rthumb 3.4151505790409313 14.207247197736633
54
root 0.5791266997155595 18.1786886989875 17.660459175631797 3.0452686739930384 4.38557490175159 -4.789152953823122
lfemur -32.89291147285329 1.7340397034594714 -19.04864620271085
ltibia 58.043506395524616
lfoot 0.10971524075865291 -11.374363213196219
ltoes -7.000047462958769
rfemur -3.0536443223233007 5.472552929966734 32.3076153358472
rtibia 45.63150135448443
rfoot 7.847653319659042 -4.890488769110452
rtoes 1.4407554070799045
lowerback 13.533833085665226 1.0856270277687246 4.5930136424722505
upperback -1.5319767934955948 2.8636966733468867 1.3533124054345878
thorax -9.139363767078185 1.0352877701076744 -1.9508585957573616
lowerneck -19.86498489898793 -5.245327675728383 -1.807918239091316
upperneck 14.839722734017858 -7.82057812152071 2.634437473781376
head 8.11872400255279 -3.2285620989441552 0.3589722964677982
lclavicle -1.9521729781560437e-15 1.1013548979497733e-15
lhumerus -63.578518118868914 -4.66185412420414 97.30413577108209
lradius 111.49104898494808
lwrist 46.52393423036241
lhand -17.68320095205688 7.3028622646812575
lfingers 7.125020000000001
lthumb 8.594978347977793 36.87160611020147
rclavicle -1.952176533109819e-15 1.101352104982752e-15
rhumerus -41.3001678614429 18.341105247442 -100.01221670340713
rradius 111.07788171145272
rwrist -14.48823452393605
rhand -23.79803921589817 -108.07017820620892
rfingers 7.125020000000001
rthumb 3.6046165638470176 14.625363787602916
55
root 0.5908572429720532 18.236137455909553 19.421948559061782 3.0529295350933996 5.038602863843592 -4.5623699460471
lfemur -30.891318474957515 1.4077537942592326 -19.045831102303197
ltibia 50.67861466186458
lfoot -0.47035788325496486 -12.573956092636628
ltoes -6.528248944717694
rfemur -3.504618062478432 5.660233149086727 31.90343790460721
rtibia 47.06371577941958
rfoot 8.609292353599125 -5.023670281473161
rtoes 1.3206244200494017
lowerback 13.202845635924442 1.140227181367651 4.427969181236847
upperback -1.6827628432927226 3.0055058542883195 1.2176265087198295
thorax -9.085550432522435 1.008225344713071 -2.051834926588806
lowerneck -19.7417786501322 -5.345861803069757 -1.8145034878254935
upperneck 15.013026664267466 -8.048859336735756 2.684815072244321
head 8.138712103821062 -3.2801548444779267 0.37064819556737283
lclavicle -1.9521729781560437e-15 1.1013548979497733e-15
lhumerus -63.73984510052358 -4.129827539636686 97.08551315232546
lradius 111.39245197144784
lwrist 46.70675097386577
lhand -17.803395984339694 6.965031164216553
lfingers 7.125020000000001
lthumb 8.567458365901325 36.84311174094864
rclavicle -1.9521765331098194e-15 1.1013521049827518e-15
rhumerus -41.64474729660831 18.760982622858236 -100.20624827882946
rradius 111.06931236235049
rwrist -14.12760998471844
rhand -23.83375625707366 -109.01975657615937
rfingers 7.125020000000001
rthumb 3.840929107306703 15.182382767113943
56
root 0.5978076545208153 18.277255080460495 20.952231886657113 2.9997977364584787 5.52286222316439 -4.235183268714335
lfemur -29.539314991335296 1.0075056770958606 -19.750717944898927
ltibia 44.51797807060809
lfoot -0.3309143213887904 -12.870554816721002
ltoes -6.336497215474614
rfemur -3.5581137439742676 5.911688437524399 31.835183831242492
rtibia 48.721119205395716
rfoot 8.3755181456643 -5.308620113373229
rtoes 1.0897361917341073
lowerback 13.097866610969772 1.1991130702576958 4.3451621262248885
upperback -1.7464576840265722 3.1522595357001126 1.1459015606637601
thorax -8.859595050499474 1.0729591349027183 -1.9167300876154696
lowerneck -19.642691630886013 -5.439269845964197 -1.8241400301983783
upperneck 15.184217102374348 -8.236552525007092 2.7613897313868474
head 8.147922550228394 -3.3302974193224166 0.3781742484564461
lclavicle -1.9521729781560437e-15 1.1013548979497733e-15
lhumerus -63.39472639438617 -3.7670242287076294 96.96488539391203
lradius 111.14426196561121
lwrist 46.89592051481496
lhand -17.686687361113346 6.97287942945953
lfingers 7.125020000000001
lthumb 8.567819108668102 36.762440717625296
rclavicle -1.9521765331098194e-15 1.1013521049827518e-15
rhumerus -41.99836651145506 19.145398290957072 -100.46969516918642
rradius 111.10482455285606
rwrist -13.872328001582597
rhand -23.761543885127214 -106.87602591097692
rfingers 7.125020000000001
rthumb 3.602464959533824 15.118956703433174
